{"title":"DieTraumfrau DVD Rip","uid":10226468,"size":739062010,"categoryP":"porn","categoryS":"movies","magnet":"?xt=urn:btih:3c0200ad4438d9f0066d542e53f6b0266144dd0d&amp;dn=DieTraumfrau+DVD+Rip&amp;tr=udp%3A%2F%2Ftracker.openbittorrent.com%3A80&amp;tr=udp%3A%2F%2Fopen.demonii.com%3A1337&amp;tr=udp%3A%2F%2Ftracker.coppersurfer.tk%3A6969&amp;tr=udp%3A%2F%2Fexodus.desync.com%3A6969","seeders":0,"leechers":0,"uploader":"ra175","files":22,"time":1401088590,"description":"General\nComplete name                            : Die Traumfrau\nFormat                                   : AVI\nFormat/Info                              : Audio Video Interleave\nFile size                                : 697 MiB\nDuration                                 : 1h 32mn\nOverall bit rate mode                    : Variable\nOverall bit rate                         : 1 050 Kbps\nWriting library                          : Nandub build 1625/release\n\nVideo\nID                                       : 0\nFormat                                   : MPEG-4 Visual\nCodec ID                                 : DIV3\nCodec ID/Hint                            : DivX 3 Low\nDuration                                 : 1h 32mn\nBit rate                                 : 909 Kbps\nWidth                                    : 512 pixels\nHeight                                   : 384 pixels\nDisplay aspect ratio                     : 4:3\nFrame rate                               : 25.000 fps\nColor space                              : YUV\nChroma subsampling                       : 4:2:0\nBit depth                                : 8 bits\nCompression mode                         : Lossy\nBits/(Pixel*Frame)                       : 0.185\nStream size                              : 604 MiB (87%)\n\nAudio\nID                                       : 1\nFormat                                   : MPEG Audio\nFormat version                           : Version 1\nFormat profile                           : Layer 3\nMode                                     : Joint stereo\nMode extension                           : MS Stereo\nCodec ID                                 : 55\nCodec ID/Hint                            : MP3\nDuration                                 : 1h 32mn\nBit rate mode                            : Variable\nBit rate                                 : 128 Kbps\nChannel count                            : 2 channels\nSampling rate                            : 44.1 KHz\nCompression mode                         : Lossy\nStream size                              : 84.8 MiB (12%)\nAlignment                                : Aligned on interleaves\nInterleave, duration                     : 26 ms (0.65 video frame)\nInterleave, preload duration             : 502 ms\nWriting library                          : LAME3.88 (beta)\n\n","torrent":{"xt":"urn:btih:3c0200ad4438d9f0066d542e53f6b0266144dd0d","amp;dn":"DieTraumfrau+DVD+Rip","amp;tr":["udp%3A%2F%2Ftracker.openbittorrent.com%3A80","udp%3A%2F%2Fopen.demonii.com%3A1337","udp%3A%2F%2Ftracker.coppersurfer.tk%3A6969","udp%3A%2F%2Fexodus.desync.com%3A6969"],"infoHash":"3c0200ad4438d9f0066d542e53f6b0266144dd0d","infoHashBuffer":{"type":"Buffer","data":[60,2,0,173,68,56,217,240,6,109,84,46,83,246,176,38,97,68,221,13]},"announce":[],"urlList":[]}}